<svg xmlns="http://www.w3.org/2000/svg" viewBox="0 0 13.509 10.583">
  <g fill-rule="evenodd">
    <path stroke="#000" stroke-width=".007759050000000001"
      d="M1.573 8.556c-.019-.001-.038 0-.057.003a1.256 1.256 0 01-.222.016h-.088a.266.266 0 00-.078.012H.334c-.12 0-.221.078-.252.194l-.066.252a.255.255 0 00.088.268.255.255 0 00.187.057v.436a.255.255 0 00-.045.268c.04.1.132.163.24.163H.93a.26.26 0 00.14-.04c.042.025.09.04.142.04h.402a.27.27 0 00.053-.005.271.271 0 00.053.005h.403a.257.257 0 00.167-.06.823.823 0 00.377.083.983.983 0 00.184-.018 1.48 1.48 0 00.192-.052.253.253 0 00.165-.17l.06-.19a.257.257 0 00-.007-.177.259.259 0 00.009-.069v-.021a.657.657 0 00-.18-.469.625.625 0 00-.462-.19.683.683 0 00-.458.164l-.003-.003a.542.542 0 00-.349-.151v-.087a.252.252 0 00-.091-.197.251.251 0 00-.153-.062zm6.512 0c-.11 0-.21.04-.289.118a.69.69 0 00-.35-.087h-.494a.255.255 0 00-.242.165.255.255 0 00.046.266v.776a.255.255 0 00-.046.266c.04.102.133.165.241.165h.443a.255.255 0 00.252-.198.256.256 0 00.252.197h.403a.273.273 0 00.04-.002.272.272 0 00.042.003h.403a.27.27 0 00.042-.004.275.275 0 00.043.004h.403a.27.27 0 00.04-.003.27.27 0 00.042.003h.403a.263.263 0 00.109-.023.666.666 0 00.192.023h.205a.255.255 0 00.25-.186.255.255 0 00.249.186h.56a.254.254 0 00.01.205c.044.09.128.144.227.146h.013l.114.003c.14 0 .28-.03.395-.115a.767.767 0 00.237-.352l.026-.068a.754.754 0 00.543.204.983.983 0 00.184-.018 1.48 1.48 0 00.192-.052.253.253 0 00.166-.17l.059-.19a.257.257 0 00-.007-.177.259.259 0 00.009-.069v-.021a.657.657 0 00-.18-.469.625.625 0 00-.462-.19.714.714 0 00-.315.07h0a.255.255 0 00-.139-.04h-.246a.26.26 0 00-.13.033.26.26 0 00-.129-.033h-.213v-.075a.26.26 0 00-.26-.26h-.655a.256.256 0 00-.242.166.255.255 0 00.046.265v.776a.258.258 0 00-.053.094.262.262 0 00-.06-.101.46.46 0 01-.074-.101l-.112-.187.127-.152a.255.255 0 00.036-.277.254.254 0 00-.236-.15l-.233.001v-.106a.252.252 0 00-.091-.197.252.252 0 00-.21-.06 1.256 1.256 0 01-.222.017h-.083a.255.255 0 00-.242.166.256.256 0 000 .19.603.603 0 00-.304-.013.254.254 0 00-.127-.011 1.168 1.168 0 01-.191.014.403.403 0 00-.117-.245.403.403 0 00-.29-.12zm-3.854.005h0c-.11 0-.22.018-.324.056a.875.875 0 00-.49.449.798.798 0 00-.077.338c0 .238.085.45.26.612a.9.9 0 00.631.235.944.944 0 00.508-.148.255.255 0 00.22.122h.402c.062 0 .118-.02.163-.056a.675.675 0 00.44.054l.03.002h.354c.106 0 .197-.06.239-.158a.254.254 0 00-.036-.263v-.989c0-.072-.036-.199-.086-.248 0 0-.622.017-.702.033-.08.017-.075.301-.073.308a.59.59 0 00-.125.04v-.133c.001-.072.02-.15-.031-.221-.07-.061-.35-.019-.492-.019h-.083a.255.255 0 00-.22.122.942.942 0 00-.508-.136zm-.01.697h.001a.099.099 0 01.01.012.36.36 0 01.04.187c0 .028-.003.087-.022.111h-.008 0a.105.105 0 01-.009-.011.364.364 0 01-.04-.189c0-.029.003-.085.022-.11h.007zm3.473.433v.113a.255.255 0 00-.048.096.257.257 0 00-.057-.106v-.072a.682.682 0 00.105-.03z" />
    <path fill="#fff" stroke="#fff" stroke-width=".007759050000000001"
      d="M.864 9.767c0 .058.005.1.015.126.01.026.027.05.05.072H.487a.197.197 0 00.05-.072.387.387 0 00.014-.126v-.726a.254.254 0 00-.058-.003.418.418 0 00-.11.015.605.605 0 00-.116.046l.066-.252h.82l-.057.252a.16.16 0 00-.067-.046.28.28 0 00-.097-.015.944.944 0 00-.068.003zm.347.198a.156.156 0 00.043-.061.244.244 0 00.013-.086v-.836a.236.236 0 00-.014-.09.132.132 0 00-.047-.057h.088a1.809 1.809 0 00.263-.02v.424a.318.318 0 01.213-.079c.09 0 .161.026.215.079.053.052.08.123.08.211v.368c0 .035.005.063.013.086a.156.156 0 00.043.061H1.72a.164.164 0 00.043-.061.237.237 0 00.013-.086v-.28a.354.354 0 00-.026-.16c-.017-.03-.045-.046-.085-.046-.039 0-.066.014-.082.043a.332.332 0 00-.025.15v.293c0 .035.005.063.013.086a.164.164 0 00.043.061zm1.51-.538c0-.04-.01-.07-.026-.09-.017-.021-.043-.032-.077-.032a.098.098 0 00-.078.033.14.14 0 00-.031.09zm.288.146h-.506A.188.188 0 012.5 9.6c0 .07.021.125.064.165.043.04.103.06.179.06a.415.415 0 00.115-.02c.044-.013.097-.034.16-.064l-.06.191c-.059.02-.111.034-.157.043a.722.722 0 01-.136.013.497.497 0 01-.343-.112.385.385 0 01-.125-.301c0-.123.04-.225.12-.304a.42.42 0 01.309-.119c.112 0 .204.037.275.11.072.074.107.17.107.289zm1.222.419a.64.64 0 01-.454-.166.551.551 0 01-.178-.422c0-.078.018-.154.052-.229a.605.605 0 01.346-.314.675.675 0 01.234-.04c.187 0 .339.054.457.163.118.109.177.25.177.422a.594.594 0 01-.396.545.683.683 0 01-.238.04zm-.298-.624c0 .139.028.25.085.334a.259.259 0 00.223.126c.09 0 .16-.033.212-.098a.43.43 0 00.078-.273.58.58 0 00-.085-.333.26.26 0 00-.224-.125.254.254 0 00-.211.099.428.428 0 00-.078.27zm1.026.597a.156.156 0 00.043-.061.243.243 0 00.013-.085v-.837a.24.24 0 00-.013-.085.163.163 0 00-.043-.062h.082a1.809 1.809 0 00.264-.02V9.82c0 .034.004.062.013.085a.164.164 0 00.043.061zm1.037-.983a.234.234 0 00-.013-.085.165.165 0 00-.043-.062h.088a1.819 1.819 0 00.264-.02v.999c0 .034.004.063.012.086a.198.198 0 00.044.065h-.355V9.56a.407.407 0 00-.025-.175c-.017-.03-.047-.046-.089-.046a.112.112 0 00-.1.06.319.319 0 00-.037.166c0 .085.017.15.05.194a.174.174 0 00.148.067h.013l-.073.152a.3.3 0 01-.05.001.371.371 0 01-.28-.109.406.406 0 01-.105-.293c0-.12.036-.221.108-.301a.343.343 0 01.349-.107c.028.009.06.023.094.042zm1.45-.135c.11 0 .197.027.262.081a.271.271 0 01.096.219.303.303 0 01-.103.243.42.42 0 01-.283.089c-.013 0-.035-.001-.065-.004H7.35a.286.286 0 00.116-.104.299.299 0 00.037-.156.214.214 0 00-.046-.144.163.163 0 00-.127-.054v.75c0 .058.005.1.015.126.01.026.026.05.05.072H6.95a.188.188 0 00.05-.072.396.396 0 00.015-.126v-.723A.39.39 0 007 8.918a.189.189 0 00-.05-.071zm.488.119c0-.042.015-.078.044-.107a.145.145 0 01.107-.044c.041 0 .076.015.105.044.03.03.044.065.044.107a.145.145 0 01-.044.106.144.144 0 01-.105.044.145.145 0 01-.107-.044.145.145 0 01-.044-.106zm-.036 1a.156.156 0 00.043-.062.243.243 0 00.013-.085V9.33a.247.247 0 00-.014-.09.145.145 0 00-.044-.06h.085a2.017 2.017 0 00.263-.017v.655c0 .034.005.062.014.085a.164.164 0 00.042.061zm.485 0a.156.156 0 00.043-.062.244.244 0 00.013-.086V9.33a.245.245 0 00-.013-.086.161.161 0 00-.043-.062h.075a2.019 2.019 0 00.265-.018l.006.08a.415.415 0 01.102-.061.27.27 0 01.1-.02c.088 0 .158.027.21.08a.291.291 0 01.077.212v.363c0 .035.004.063.013.086a.162.162 0 00.043.061H8.87a.156.156 0 00.043-.061.243.243 0 00.013-.086v-.253a.486.486 0 00-.023-.182.082.082 0 00-.08-.051c-.036 0-.06.014-.074.043a.542.542 0 00-.02.19v.253c0 .035.004.063.013.086a.164.164 0 00.042.061zm1.32-.148c0 .035.004.063.012.086a.164.164 0 00.043.061h-.402a.156.156 0 00.043-.061.245.245 0 00.013-.086v-.836a.238.238 0 00-.013-.085.163.163 0 00-.043-.062h.083a1.81 1.81 0 00.263-.02v.695l.144-.162a.179.179 0 00.03-.043.093.093 0 00.01-.041c0-.016-.013-.038-.037-.064a.909.909 0 01-.016-.018l.363-.001-.247.294.209.345a.928.928 0 00.107.145h-.205a.33.33 0 01-.135-.019c-.024-.012-.053-.047-.087-.105l-.136-.234zm1.06.147a.186.186 0 00.05-.072.395.395 0 00.014-.126v-.724a.388.388 0 00-.014-.127.184.184 0 00-.05-.07h.655v.233a.25.25 0 00-.072-.05.228.228 0 00-.088-.014h-.114v.279h.214v.214a.128.128 0 00-.05-.041.162.162 0 00-.07-.015h-.094v.337a.75.75 0 00.124.015.558.558 0 00.157-.02.375.375 0 00.123-.063l-.06.244zm.805.352l.133-.17.028.003h.015c.05 0 .091-.016.123-.047a.367.367 0 00.079-.156.256.256 0 01-.084-.077.63.63 0 01-.072-.134l-.16-.39a.883.883 0 00-.102-.165h.363l.178.463.09-.26.004-.01a.389.389 0 00.025-.105.09.09 0 00-.008-.035.336.336 0 00-.03-.052h.246l-.32.838a.515.515 0 01-.149.236.394.394 0 01-.239.064 3.474 3.474 0 01-.12-.003zm1.375-.89c0-.04-.008-.07-.025-.09-.017-.021-.043-.032-.077-.032a.098.098 0 00-.078.033.14.14 0 00-.031.09zm.29.146h-.507a.19.19 0 01-.002.027c0 .07.022.125.064.165.043.04.103.06.179.06a.415.415 0 00.115-.02c.044-.013.097-.034.16-.064l-.06.191c-.059.02-.111.034-.157.043a.722.722 0 01-.136.013.497.497 0 01-.343-.112.385.385 0 01-.125-.301c0-.123.04-.225.12-.304a.42.42 0 01.309-.119c.112 0 .204.037.275.11.072.074.107.17.107.289z" />
    <g stroke-width=".216">
      <path stroke="#000" stroke-width=".01454328"
        d="M3.946 8.496c-.117-.128-.55-.564-.668-.662a13.575 13.575 0 00-.295-.241.742.742 0 01-.059.028c-.35.151-.802.195-1.182.158a.484.484 0 01-.439-.495c.007-.242.156-.475.215-.702a.487.487 0 01.075-.187h0a.475.475 0 01-.05-.278.473.473 0 01-.36-.161l-.452-.501a.463.463 0 01-.082-.126c-.12-.268-.185-.553-.303-.815L.06 3.941a.48.48 0 01.111-.58l1.31-1.163a.47.47 0 01.401-.116c.235.04.626.331.822.473.165.12.46.33.615.495.602-.286 1.184-.622 1.788-.898.526-.24 1.071-.412 1.607-.624a.464.464 0 01.061-.02l.324-.08c.198-.11.422-.201.629-.285.22-.088.443-.172.667-.252.733-.258 1.492-.398 2.228-.634.124-.04.25-.078.374-.116.122-.037.397-.134.517-.134.267 0 .485.218.485.485a.966.966 0 01-.133.513c-.064.107-.145.188-.216.287-.088.122-.287.42-.432.672l1.973.758a.48.48 0 01.306.521c-.06.422-.488.516-.838.547a8.137 8.137 0 01-.898.016 20.796 20.796 0 01-.16-.005l1.379 1.775a.47.47 0 01.09.405.47.47 0 01-.257.326c-.343.171-.726-.122-.997-.31-.326-.227-.643-.47-.957-.713-.392-.304-.775-.619-1.163-.926l-1.316.274a15.67 15.67 0 01-1.002.236c.041.017.082.033.124.046l1.287.189c.17.025.304.127.373.284a.47.47 0 01-.017.426.466.466 0 01.219.216c.06.12.07.245.028.373-.103.307-.39.426-.682.48l.344.68c.096.19.061.41-.089.56l-.017.017a.468.468 0 01-.342.142H8.54a.471.471 0 01-.392-.2c-.056-.076-.163-.165-.235-.229-.088-.078-.181-.159-.266-.247-.204.168-.486.299-.67.39-.223.111-.517.26-.754.33a.555.555 0 01-.015.005.725.725 0 01.004.003" />
      <path fill="#fff" stroke="#fff" stroke-width=".01454328"
        d="M11.514.406c0 .262-.115.317-.258.517-.164.228-.662.991-.679 1.228l2.44.937c-.038.266-2.106.1-2.44.097l2.02 2.602c-.176.088-2.531-1.843-2.78-2.036l-1.55.323c-.942.26-2.017.412-2.958.63v.016h.905c.376.155.761.456 1.18.582l1.325.194c-.137.202-.465.23-.598.436v.016c.204.065.606.15.81.215-.069.209-.772.183-.972.222l.663 1.309-.017.016h-.064c-.164-.225-.542-.467-.663-.679-.123-.216-.191-.653-.355-.808-.198-.201-1.683-.888-1.996-.697-.016.075-.21.24-.226.316a.922.922 0 01.525-.152 4.2 4.2 0 00.566.743c-.128.293-.679.528-.873.857l-1.131-.016c-.1-.415-.38-.793-.485-1.18l.727-.582c-.345.011-.638-.017-.905.065-.533.164-1.046.474-1.7.508 0-.02 1.358-.787 1.506-.88.175-.109.378-.18.517-.323l-2.504.662-.453-.5c-.134-.3-.18-.543-.307-.825l-.29-.581 1.308-1.164c.153.026 1.076.71 1.18.84l-.194.404c.873-.326 1.701-.837 2.52-1.212.537-.244 1.046-.4 1.585-.614l.387-.097c.295-.172.96-.42 1.277-.533.74-.262 1.496-.4 2.214-.63.071-.023.734-.226.743-.226zm-6.271 5.47c-.103.028-.503.32-.556.412.048.22.157.512.206.733.46-.104.685-.248.931-.602-.032-.086-.176-.223-.208-.309H5.55c-.364.058-.016.118-.221.537-.043.027-.114.139-.167.126l-.242-.34a.675.675 0 01.049-.323c.094-.017.31-.231.331-.268.008-.015.006.013-.058.034zM2.028 3.072c-.095.107-.482.52-.42.63l.356.42.71-.355-.16.032c-.108-.136-.347-.215-.389-.404l.13-.097-.227-.226z" />
      <path fill="#fff" stroke="#fff" stroke-width=".01454328"
        d="M3.766 5.86c.054.01-.275.17-.221.181.006.008.409.082.293.198-.195-.138-.339-.136-.336-.095-.018.082.233.214.199.286-.095 0-.275-.279-.358-.24 0 .006-.182.07-.182.076.011 0 .232.133.243.133.075.065.087.02.163.085-.006.043.156.19.15.233-.016.005-.219-.219-.235-.214-.213-.022-.346-.207-.492-.204-.189-.016-.337.053-.525.037v-.064c.171-.025.408-.01.607-.056.067-.086.285-.007.377-.23.027-.022.29-.104.317-.126zM6.408 6.19c.087.043.072.23.205.22.054.07.136-.051.215-.01a.583.583 0 00.295-.078c.205.008.016-.052.19-.018 0 .027.152.062.152.089-.005.01.03.062.025.073-.073-.069-.054-.053-.152-.08-.008-.035-.086-.026-.175-.01-.12.03-.203.066-.333.082-.11-.075-.339.182-.47.153 0-.022.067-.043.067-.065.049-.027.03-.054.078-.08-.029-.122-.084-.134-.097-.275z" />
      <path fill="#fff" stroke="#fff" stroke-width=".01454328"
        d="M3.127 6.563c.078.131.878.714 1.035.775.143.056 1.697-.032 1.842-.08.348-.117 1.13-.612 1.47-.566-.09.08-.388.284-.388.404.051.03.123-.03.335-.03-.047.136-1.112.641-1.336.709-.285.024-1.77.214-1.923.145-.084-.17-1.178-1.052-1.212-1.034-.1.025-.112.158-.217.203-.257.11-.624.152-.945.121.003-.104.193-.517.208-.631.203-.013.975-.091 1.131-.016z" />
    </g>
  </g>
</svg>
